<svg version="1.1" xmlns="http://www.w3.org/2000/svg" xmlns:xlink="http://www.w3.org/1999/xlink" x="0px" y="0px" viewBox="0 0 64 64" enable-background="new 0 0 64 64" xml:space="preserve">
<g id="_x30_1">
</g>
<g id="_x30_2">
</g>
<g id="_x30_3">
</g>
<g id="_x30_4">
</g>
<g id="_x30_5">
</g>
<g id="_x30_6">
</g>
<g id="_x30_7">
</g>
<g id="_x30_8">
</g>
<g id="_x30_9">
</g>
<g id="_x31_0">
</g>
<g id="_x31_1">
</g>
<g id="_x31_2">
</g>
<g id="_x31_3">
</g>
<g id="_x31_4">
</g>
<g id="_x31_5">
</g>
<g id="_x31_6">
</g>
<g id="_x31_7">
	<g>
		<g>
			<path d="M46,34c-0.552,0-1-0.447-1-1V0h14v20c0,0.553-0.448,1-1,1s-1-0.447-1-1V2H47v31C47,33.553,46.552,34,46,34z" id="id_101" style="fill: rgb(255, 255, 255);"></path>
		</g>
		<g>
			<path d="M59,64H45V46c0-0.553,0.448-1,1-1s1,0.447,1,1v16h10V34c0-0.553,0.448-1,1-1s1,0.447,1,1V64z" id="id_102" style="fill: rgb(255, 255, 255);"></path>
		</g>
		<g>
			<path d="M38,37c-0.552,0-1-0.447-1-1V17H27v13c0,0.553-0.448,1-1,1s-1-0.447-1-1V15h14v21C39,36.553,38.552,37,38,37z" id="id_103" style="fill: rgb(255, 255, 255);"></path>
		</g>
		<g>
			<path d="M39,64H25V41c0-0.553,0.448-1,1-1s1,0.447,1,1v21h10V47c0-0.553,0.448-1,1-1s1,0.447,1,1V64z" id="id_104" style="fill: rgb(255, 255, 255);"></path>
		</g>
		<g>
			<path d="M6,42c-0.552,0-1-0.447-1-1V26h14v6c0,0.553-0.448,1-1,1s-1-0.447-1-1v-4H7v13C7,41.553,6.552,42,6,42z" id="id_105" style="fill: rgb(255, 255, 255);"></path>
		</g>
		<g>
			<path d="M19,64H5V53c0-0.553,0.448-1,1-1s1,0.447,1,1v9h10V44c0-0.553,0.448-1,1-1s1,0.447,1,1V64z" id="id_106" style="fill: rgb(255, 255, 255);"></path>
		</g>
		<g>
			<path d="M2.001,52c-0.603,0-1.199-0.271-1.592-0.788c-0.669-0.879-0.5-2.134,0.379-2.803l22.015-16.773l18.759,9.873
				L60.52,20.654c0.743-0.816,2.008-0.877,2.825-0.134c0.817,0.742,0.877,2.008,0.135,2.825L42.438,46.491L23.197,36.364
				L3.212,51.591C2.85,51.866,2.424,52,2.001,52z" id="id_107" style="fill: rgb(255, 255, 255);"></path>
		</g>
	</g>
</g>
<g id="_x31_8">
</g>
<g id="_x31_9">
</g>
<g id="_x32_0">
</g>
</svg>